HIERARCHY
ROOT Hips
{
  OFFSET -13.450 4.569 -301.866
  CHANNELS 6 Xposition Yposition Zposition Zrotation Xrotation Yrotation
  JOINT LeftUpLeg
  {
    OFFSET 8.009 -7.699 2.075
    CHANNELS 6 Xposition Yposition Zposition Zrotation Xrotation Yrotation
    JOINT LeftLeg
    {
      OFFSET 0.000 -50.681 0.000
      CHANNELS 6 Xposition Yposition Zposition Zrotation Xrotation Yrotation
      JOINT LeftFoot
      {
        OFFSET -0.000 -40.838 -0.000
        CHANNELS 6 Xposition Yposition Zposition Zrotation Xrotation Yrotation
        End Site
        {
          OFFSET -0.000 -10.599 6.119
        }
      }
    }
  }
  JOINT RightUpLeg
  {
    OFFSET -7.746 -7.742 1.177
    CHANNELS 6 Xposition Yposition Zposition Zrotation Xrotation Yrotation
    JOINT RightLeg
    {
      OFFSET 0.000 -49.975 0.000
      CHANNELS 6 Xposition Yposition Zposition Zrotation Xrotation Yrotation
      JOINT RightFoot
      {
        OFFSET -0.000 -40.767 -0.000
        CHANNELS 6 Xposition Yposition Zposition Zrotation Xrotation Yrotation
        End Site
        {
          OFFSET 0.000 -8.028 4.635
        }
      }
    }
  }
  JOINT Spine
  {
    OFFSET 0.000 6.275 -6.275
    CHANNELS 6 Xposition Yposition Zposition Zrotation Xrotation Yrotation
    JOINT LeftShoulder
    {
      OFFSET -0.000 32.735 0.000
      CHANNELS 6 Xposition Yposition Zposition Zrotation Xrotation Yrotation
      JOINT LeftArm
      {
        OFFSET 18.727 0.000 -0.000
        CHANNELS 6 Xposition Yposition Zposition Zrotation Xrotation Yrotation
        JOINT LeftForeArm
        {
          OFFSET 27.249 0.000 0.000
          CHANNELS 6 Xposition Yposition Zposition Zrotation Xrotation Yrotation
          JOINT LeftHand
          {
            OFFSET 27.378 0.000 -0.000
            CHANNELS 6 Xposition Yposition Zposition Zrotation Xrotation Yrotation
            JOINT LeftHandThumb1
            {
            OFFSET 4.970 -0.620 3.390
            CHANNELS 6 Xposition Yposition Zposition Zrotation Xrotation Yrotation
              JOINT LeftHandThumb2
              {
              OFFSET 2.150 -0.000 0.000
              CHANNELS 6 Xposition Yposition Zposition Zrotation Xrotation Yrotation
                JOINT LeftHandThumb3
                {
                OFFSET 2.200 -0.000 0.000
                CHANNELS 6 Xposition Yposition Zposition Zrotation Xrotation Yrotation
                  JOINT LeftHandThumb4
                  {
                  OFFSET 1.700 -0.000 0.000
                  CHANNELS 6 Xposition Yposition Zposition Zrotation Xrotation Yrotation
                  }
                }
              }
            }
            JOINT LeftHandIndex1
            {
            OFFSET 8.730 0.680 2.070
            CHANNELS 6 Xposition Yposition Zposition Zrotation Xrotation Yrotation
              JOINT LeftHandIndex2
              {
              OFFSET 2.670 -0.000 0.000
              CHANNELS 6 Xposition Yposition Zposition Zrotation Xrotation Yrotation
                JOINT LeftHandIndex3
                {
                OFFSET 2.130 -0.000 0.000
                CHANNELS 6 Xposition Yposition Zposition Zrotation Xrotation Yrotation
                  JOINT LeftHandIndex4
                  {
                  OFFSET 1.800 -0.000 0.000
                  CHANNELS 6 Xposition Yposition Zposition Zrotation Xrotation Yrotation
                  }
                }
              }
            }
            JOINT LeftHandMiddle1
            {
            OFFSET 9.220 0.670 0.550
            CHANNELS 6 Xposition Yposition Zposition Zrotation Xrotation Yrotation
              JOINT LeftHandMiddle2
              {
              OFFSET 2.660 -0.000 0.000
              CHANNELS 6 Xposition Yposition Zposition Zrotation Xrotation Yrotation
                JOINT LeftHandMiddle3
                {
                OFFSET 2.280 -0.000 0.000
                CHANNELS 6 Xposition Yposition Zposition Zrotation Xrotation Yrotation
                  JOINT LeftHandMiddle4
                  {
                  OFFSET 1.500 -0.000 0.000
                  CHANNELS 6 Xposition Yposition Zposition Zrotation Xrotation Yrotation
                  }
                }
              }
            }
            JOINT LeftHandRing1
            {
            OFFSET 9.250 0.670 -1.130
            CHANNELS 6 Xposition Yposition Zposition Zrotation Xrotation Yrotation
              JOINT LeftHandRing2
              {
              OFFSET 2.470 -0.000 0.000
              CHANNELS 6 Xposition Yposition Zposition Zrotation Xrotation Yrotation
                JOINT LeftHandRing3
                {
                OFFSET 2.210 -0.000 0.000
                CHANNELS 6 Xposition Yposition Zposition Zrotation Xrotation Yrotation
                  JOINT LeftHandRing4
                  {
                  OFFSET 1.800 -0.000 0.000
                  CHANNELS 6 Xposition Yposition Zposition Zrotation Xrotation Yrotation
                  }
                }
              }
            }
            JOINT LeftHandPinky1
            {
            OFFSET 9.350 0.660 -2.720
            CHANNELS 6 Xposition Yposition Zposition Zrotation Xrotation Yrotation
              JOINT LeftHandPinky2
              {
              OFFSET 1.630 -0.000 0.000
              CHANNELS 6 Xposition Yposition Zposition Zrotation Xrotation Yrotation
                JOINT LeftHandPinky3
                {
                OFFSET 1.710 -0.000 0.000
                CHANNELS 6 Xposition Yposition Zposition Zrotation Xrotation Yrotation
                  JOINT LeftHandPinky4
                  {
                  OFFSET 1.800 -0.000 0.000
                  CHANNELS 6 Xposition Yposition Zposition Zrotation Xrotation Yrotation
                  }
                }
              }
            }
          }
        }
      }
    }
    JOINT RightShoulder
    {
      OFFSET -0.000 32.735 0.000
      CHANNELS 6 Xposition Yposition Zposition Zrotation Xrotation Yrotation
      JOINT RightArm
      {
        OFFSET -18.567 0.000 -0.000
        CHANNELS 6 Xposition Yposition Zposition Zrotation Xrotation Yrotation
        JOINT RightForeArm
        {
          OFFSET -27.745 0.000 0.000
          CHANNELS 6 Xposition Yposition Zposition Zrotation Xrotation Yrotation
          JOINT RightHand
          {
            OFFSET -28.243 -0.000 -0.000
            CHANNELS 6 Xposition Yposition Zposition Zrotation Xrotation Yrotation
            JOINT RightHandThumb1
            {
            OFFSET -4.970 -0.620 3.390
            CHANNELS 6 Xposition Yposition Zposition Zrotation Xrotation Yrotation
              JOINT RightHandThumb2
              {
              OFFSET -2.150 0.000 0.000
              CHANNELS 6 Xposition Yposition Zposition Zrotation Xrotation Yrotation
                JOINT RightHandThumb3
                {
                OFFSET -2.200 0.000 0.000
                CHANNELS 6 Xposition Yposition Zposition Zrotation Xrotation Yrotation
                  JOINT RightHandThumb4
                  {
                  OFFSET -1.700 0.000 0.000
                  CHANNELS 6 Xposition Yposition Zposition Zrotation Xrotation Yrotation
                  }
                }
              }
            }
            JOINT RightHandIndex1
            {
            OFFSET -8.730 0.680 2.070
            CHANNELS 6 Xposition Yposition Zposition Zrotation Xrotation Yrotation
              JOINT RightHandIndex2
              {
              OFFSET -2.670 0.000 0.000
              CHANNELS 6 Xposition Yposition Zposition Zrotation Xrotation Yrotation
                JOINT RightHandIndex3
                {
                OFFSET -2.130 0.000 0.000
                CHANNELS 6 Xposition Yposition Zposition Zrotation Xrotation Yrotation
                  JOINT RightHandIndex4
                  {
                  OFFSET -1.800 0.000 0.000
                  CHANNELS 6 Xposition Yposition Zposition Zrotation Xrotation Yrotation
                  }
                }
              }
            }
            JOINT RightHandMiddle1
            {
            OFFSET -9.220 0.670 0.550
            CHANNELS 6 Xposition Yposition Zposition Zrotation Xrotation Yrotation
              JOINT RightHandMiddle2
              {
              OFFSET -2.660 0.000 0.000
              CHANNELS 6 Xposition Yposition Zposition Zrotation Xrotation Yrotation
                JOINT RightHandMiddle3
                {
                OFFSET -2.280 0.000 0.000
                CHANNELS 6 Xposition Yposition Zposition Zrotation Xrotation Yrotation
                  JOINT RightHandMiddle4
                  {
                  OFFSET -1.500 0.000 0.000
                  CHANNELS 6 Xposition Yposition Zposition Zrotation Xrotation Yrotation
                  }
                }
              }
            }
            JOINT RightHandRing1
            {
            OFFSET -9.250 0.670 -1.130
            CHANNELS 6 Xposition Yposition Zposition Zrotation Xrotation Yrotation
              JOINT RightHandRing2
              {
              OFFSET -2.470 0.000 0.000
              CHANNELS 6 Xposition Yposition Zposition Zrotation Xrotation Yrotation
                JOINT RightHandRing3
                {
                OFFSET -2.210 0.000 0.000
                CHANNELS 6 Xposition Yposition Zposition Zrotation Xrotation Yrotation
                  JOINT RightHandRing4
                  {
                  OFFSET -1.800 0.000 0.000
                  CHANNELS 6 Xposition Yposition Zposition Zrotation Xrotation Yrotation
                  }
                }
              }
            }
            JOINT RightHandPinky1
            {
            OFFSET -9.350 0.660 -2.720
            CHANNELS 6 Xposition Yposition Zposition Zrotation Xrotation Yrotation
              JOINT RightHandPinky2
              {
              OFFSET -1.630 0.000 0.000
              CHANNELS 6 Xposition Yposition Zposition Zrotation Xrotation Yrotation
                JOINT RightHandPinky3
                {
                OFFSET -1.710 0.000 0.000
                CHANNELS 6 Xposition Yposition Zposition Zrotation Xrotation Yrotation
                  JOINT RightHandPinky4
                  {
                  OFFSET -1.800 0.000 0.000
                  CHANNELS 6 Xposition Yposition Zposition Zrotation Xrotation Yrotation
                  }
                }
              }
            }
          }
        }
      }
    }
    JOINT Neck
    {
      OFFSET -0.000 32.735 0.000
      CHANNELS 6 Xposition Yposition Zposition Zrotation Xrotation Yrotation
      JOINT Head
      {
        OFFSET -0.000 23.768 -0.000
        CHANNELS 6 Xposition Yposition Zposition Zrotation Xrotation Yrotation
        End Site
        {
          OFFSET -0.000 0.095 -0.000
        }
      }
    }
  }
}
MOTION
Frames:	6
Frame Time:	0.0333333
-13.1042 5.33435 -300.983 0.915341 -1.73408 -3.11929 8.27357 -8.15054 2.14839 3.40256 0.770937 -3.69931 2.98023e-06 -50.4066 -4.76837e-05 -7.25127 -0.631946 -0.0804069 -1.19209e-05 -40.9154 -7.15256e-05 31.159 -0.300889 20.5838 -8.13554 -8.16568 1.10202 -4.68995 -1.07483 -3.74913 0 -50.2758 0.000119209 6.20055 5.69544 -0.617736 0 -40.1528 -9.53674e-05 2.68623 -2.38612 1.65581 2.98023e-06 6.13855 -6.13861 0.487806 -1.7316 -0.63787 5.96046e-06 32.7348 0 -18.4611 1.04587e-05 -0.0534266 19.5216 -5.96046e-06 2.38419e-05 66.0475 -64.542 40.8786 25.8505 -9.53674e-05 -8.9407e-06 9.80396e-06 -8.53774e-07 -38.9186 28.8355 7.15256e-05 2.38419e-05 14.1842 0.112849 3.19881 0.0062 0.0497 0.0339 0 0 0 0 0.0215 0 0 0 0 0 0.022 0 0 0 0 0 0.017 0 0 0 0 -0.0068 0.0873 0.0207 0 0 0 0 0.0267 0 0 0 0 0 0.0213 0 0 0 0 0 0.018 0 0 0 0 -0.0067 0.0922 0.0055 0 0 0 0 0.0266 0 0 0 0 0 0.0228 0 0 0 0 0 0.015 0 0 0 0 -0.0067 0.0925 -0.0113 0 0 0 0 0.0247 0 0 0 0 0 0.0221 0 0 0 0 0 0.018 0 0 0 0 -0.0066 0.0935 -0.0272 0 0 0 0 0.0163 0 0 0 0 0 0.0171 0 0 0 0 0 0.018 0 0 0 0 5.96046e-06 32.7348 0 16.515 -4.26887e-06 0.0546594 -19.0775 5.96046e-06 2.38419e-05 -95.0877 -77.5596 -73.4142 -26.9905 0 -2.98023e-06 1.04904e-05 -1.38738e-06 35.9015 -28.1303 2.38419e-05 -1.78814e-05 -13.405 -0.29979 2.39519 -0.0062 0.0497 0.0339 0 0 0 0 0.0215 0 0 0 0 0 0.022 0 0 0 0 0 0.017 0 0 0 0 0.0068 0.0873 0.0207 0 0 0 0 0.0267 0 0 0 0 0 0.0213 0 0 0 0 0 0.018 0 0 0 0 0.0067 0.0922 0.0055 0 0 0 0 0.0266 0 0 0 0 0 0.0228 0 0 0 0 0 0.015 0 0 0 0 0.0067 0.0925 -0.0113 0 0 0 0 0.0247 0 0 0 0 0 0.0221 0 0 0 0 0 0.018 0 0 0 0 0.0066 0.0935 -0.0272 0 0 0 0 0.0163 0 0 0 0 0 0.0171 0 0 0 0 0 0.018 0 0 0 0 5.96046e-06 32.7348 0 -7.42123 8.33857 1.08217 -5.96046e-06 22.3668 4.76837e-05 8.9913e-06 -8.96462e-06 4.26887e-07 
-13.0344 5.55726 -301.062 1.00523 -2.11929 -3.22663 8.26123 -8.19672 2.14148 3.27125 1.03054 -3.77323 -2.98023e-06 -50.5509 -4.76837e-05 -7.29585 -0.435899 -0.0558064 1.19209e-05 -40.9671 4.76837e-05 31.1523 0.0416915 20.3829 -8.17021 -8.20489 1.0761 -4.79197 -0.895499 -3.79763 -1.19209e-05 -50.4344 -2.38419e-05 6.12666 6.02154 -0.645136 -5.96046e-06 -40.2321 -4.76837e-05 2.5084 -1.65617 1.52184 5.96046e-06 6.10618 -6.10616 0.292847 -1.48768 -0.417793 -5.96046e-06 32.7348 2.38419e-05 -17.2821 1.23797e-05 0.682825 19.4461 0 -7.15256e-05 66.3219 -66.1523 36.8841 24.9565 0 2.68221e-05 -7.63778e-06 -8.53773e-07 -39.0935 29.7235 -2.38419e-05 5.96046e-06 14.205 -0.221455 -1.6286 0.0062 0.0497 0.0339 0 0 0 0 0.0215 0 0 0 0 0 0.022 0 0 0 0 0 0.017 0 0 0 0 -0.0068 0.0873 0.0207 0 0 0 0 0.0267 0 0 0 0 0 0.0213 0 0 0 0 0 0.018 0 0 0 0 -0.0067 0.0922 0.0055 0 0 0 0 0.0266 0 0 0 0 0 0.0228 0 0 0 0 0 0.015 0 0 0 0 -0.0067 0.0925 -0.0113 0 0 0 0 0.0247 0 0 0 0 0 0.0221 0 0 0 0 0 0.018 0 0 0 0 -0.0066 0.0935 -0.0272 0 0 0 0 0.0163 0 0 0 0 0 0.0171 0 0 0 0 0 0.018 0 0 0 0 -5.96046e-06 32.7348 2.38419e-05 16.0595 -1.70755e-06 -0.693217 -19.1549 5.96046e-06 -2.38419e-05 -103.393 -79.7341 -77.8448 -26.8603 -2.38419e-05 2.98023e-06 -1.65587e-05 1.92099e-05 38.8317 -29.5391 2.38419e-05 -5.96046e-06 -13.5776 -0.184779 0.625493 -0.0062 0.0497 0.0339 0 0 0 0 0.0215 0 0 0 0 0 0.022 0 0 0 0 0 0.017 0 0 0 0 0.0068 0.0873 0.0207 0 0 0 0 0.0267 0 0 0 0 0 0.0213 0 0 0 0 0 0.018 0 0 0 0 0.0067 0.0922 0.0055 0 0 0 0 0.0266 0 0 0 0 0 0.0228 0 0 0 0 0 0.015 0 0 0 0 0.0067 0.0925 -0.0113 0 0 0 0 0.0247 0 0 0 0 0 0.0221 0 0 0 0 0 0.018 0 0 0 0 0.0066 0.0935 -0.0272 0 0 0 0 0.0163 0 0 0 0 0 0.0171 0 0 0 0 0 0.018 0 0 0 0 -5.96046e-06 32.7348 2.38419e-05 -7.43526 8.47362 1.10167 -2.98023e-06 22.1284 -2.38419e-05 8.8579e-06 -1.10991e-05 0 
-13.0344 5.55726 -301.062 1.00523 -2.11929 -3.22663 8.26123 -8.19672 2.14148 3.27125 1.03054 -3.77323 -2.98023e-06 -50.5509 -4.76837e-05 -7.29585 -0.435899 -0.0558064 1.19209e-05 -40.9671 4.76837e-05 31.1523 0.0416915 20.3829 -8.17021 -8.20489 1.0761 -4.79197 -0.895499 -3.79763 -1.19209e-05 -50.4344 -2.38419e-05 6.12666 6.02154 -0.645136 -5.96046e-06 -40.2321 -4.76837e-05 2.5084 -1.65617 1.52184 5.96046e-06 6.10618 -6.10616 0.292847 -1.48768 -0.417793 -5.96046e-06 32.7348 2.38419e-05 -17.2821 1.23797e-05 0.682825 19.4461 0 -7.15256e-05 66.3219 -66.1523 36.8841 24.9565 0 2.68221e-05 -7.63778e-06 -8.53773e-07 -39.0935 29.7235 -2.38419e-05 5.96046e-06 14.205 -0.221455 -1.6286 0.0062 0.0497 0.0339 0 0 0 0 0.0215 0 0 0 0 0 0.022 0 0 0 0 0 0.017 0 0 0 0 -0.0068 0.0873 0.0207 0 0 0 0 0.0267 0 0 0 0 0 0.0213 0 0 0 0 0 0.018 0 0 0 0 -0.0067 0.0922 0.0055 0 0 0 0 0.0266 0 0 0 0 0 0.0228 0 0 0 0 0 0.015 0 0 0 0 -0.0067 0.0925 -0.0113 0 0 0 0 0.0247 0 0 0 0 0 0.0221 0 0 0 0 0 0.018 0 0 0 0 -0.0066 0.0935 -0.0272 0 0 0 0 0.0163 0 0 0 0 0 0.0171 0 0 0 0 0 0.018 0 0 0 0 -5.96046e-06 32.7348 2.38419e-05 16.0595 -1.70755e-06 -0.693217 -19.1549 5.96046e-06 -2.38419e-05 -103.393 -79.7341 -77.8448 -26.8603 -2.38419e-05 2.98023e-06 -1.65587e-05 1.92099e-05 38.8317 -29.5391 2.38419e-05 -5.96046e-06 -13.5776 -0.184779 0.625493 -0.0062 0.0497 0.0339 0 0 0 0 0.0215 0 0 0 0 0 0.022 0 0 0 0 0 0.017 0 0 0 0 0.0068 0.0873 0.0207 0 0 0 0 0.0267 0 0 0 0 0 0.0213 0 0 0 0 0 0.018 0 0 0 0 0.0067 0.0922 0.0055 0 0 0 0 0.0266 0 0 0 0 0 0.0228 0 0 0 0 0 0.015 0 0 0 0 0.0067 0.0925 -0.0113 0 0 0 0 0.0247 0 0 0 0 0 0.0221 0 0 0 0 0 0.018 0 0 0 0 0.0066 0.0935 -0.0272 0 0 0 0 0.0163 0 0 0 0 0 0.0171 0 0 0 0 0 0.018 0 0 0 0 -5.96046e-06 32.7348 2.38419e-05 -7.43526 8.47362 1.10167 -2.98023e-06 22.1284 -2.38419e-05 8.8579e-06 -1.10991e-05 0 
-12.9716 5.73729 -301.123 1.13993 -2.43146 -3.32753 8.24052 -8.23432 2.1178 3.08624 1.23547 -3.71584 1.19209e-05 -50.6651 4.76837e-05 -7.32993 -0.208753 -0.0268531 -5.96046e-06 -41.0622 -7.15256e-05 31.3287 0.277381 20.3881 -8.18737 -8.2295 1.07138 -4.94264 -0.725545 -3.72011 5.96046e-06 -50.5843 -2.38419e-05 6.05995 6.23118 -0.660185 -1.19209e-05 -40.2782 4.76837e-05 2.41188 -1.03382 1.44137 0 6.08247 -6.08249 0.14526 -1.27473 -0.237792 -2.98023e-06 32.7348 7.15256e-05 -16.3919 1.17394e-05 1.20667 19.4091 1.19209e-05 2.38419e-05 65.7179 -67.7166 33.9184 24.6083 -4.76837e-05 -5.96046e-06 4.60667e-06 -1.70755e-06 -39.4417 29.3822 4.76837e-05 5.96046e-06 14.7188 -0.27964 -3.50769 0.0062 0.0497 0.0339 0 0 0 0 0.0215 0 0 0 0 0 0.022 0 0 0 0 0 0.017 0 0 0 0 -0.0068 0.0873 0.0207 0 0 0 0 0.0267 0 0 0 0 0 0.0213 0 0 0 0 0 0.018 0 0 0 0 -0.0067 0.0922 0.0055 0 0 0 0 0.0266 0 0 0 0 0 0.0228 0 0 0 0 0 0.015 0 0 0 0 -0.0067 0.0925 -0.0113 0 0 0 0 0.0247 0 0 0 0 0 0.0221 0 0 0 0 0 0.018 0 0 0 0 -0.0066 0.0935 -0.0272 0 0 0 0 0.0163 0 0 0 0 0 0.0171 0 0 0 0 0 0.018 0 0 0 0 -2.98023e-06 32.7348 7.15256e-05 15.7705 -8.53774e-07 -1.21938 -19.207 5.96046e-06 -2.38419e-05 -108.2 -81.2112 -79.8854 -26.681 0.000119209 2.98023e-06 7.31594e-06 -4.85584e-06 39.4669 -29.3612 0 -1.78814e-05 -13.6218 -0.149636 0.656163 -0.0062 0.0497 0.0339 0 0 0 0 0.0215 0 0 0 0 0 0.022 0 0 0 0 0 0.017 0 0 0 0 0.0068 0.0873 0.0207 0 0 0 0 0.0267 0 0 0 0 0 0.0213 0 0 0 0 0 0.018 0 0 0 0 0.0067 0.0922 0.0055 0 0 0 0 0.0266 0 0 0 0 0 0.0228 0 0 0 0 0 0.015 0 0 0 0 0.0067 0.0925 -0.0113 0 0 0 0 0.0247 0 0 0 0 0 0.0221 0 0 0 0 0 0.018 0 0 0 0 0.0066 0.0935 -0.0272 0 0 0 0 0.0163 0 0 0 0 0 0.0171 0 0 0 0 0 0.018 0 0 0 0 -2.98023e-06 32.7348 7.15256e-05 -7.52013 8.55697 1.12527 -5.96046e-06 21.9602 4.76837e-05 9.44487e-06 -1.02453e-05 -1.06722e-06 
-12.9141 5.94626 -301.197 1.20334 -2.78378 -3.53361 8.233 -8.27294 2.07701 2.9701 1.50401 -3.55287 1.19209e-05 -50.8491 0 -7.35184 -0.0789699 -0.0101868 0 -41.1216 0 31.4719 0.412195 20.4273 -8.2035 -8.27238 1.07994 -5.00789 -0.51929 -3.53005 5.96046e-06 -50.7605 9.53674e-05 5.97459 6.42936 -0.671429 0 -40.3154 -7.15256e-05 2.34152 -0.374205 1.37519 0 6.05466 -6.05471 0.0517314 -1.03269 -0.128771 -2.98023e-06 32.7348 0 -15.6896 1.17394e-05 1.71808 19.354 0 2.38419e-05 64.7326 -68.3818 26.8553 25.0522 -4.76837e-05 8.9407e-06 7.0076e-06 1.53679e-05 -34.7028 27.9107 4.76837e-05 -5.96046e-06 15.2817 -0.301155 -5.01081 0.0062 0.0497 0.0339 0 0 0 0 0.0215 0 0 0 0 0 0.022 0 0 0 0 0 0.017 0 0 0 0 -0.0068 0.0873 0.0207 0 0 0 0 0.0267 0 0 0 0 0 0.0213 0 0 0 0 0 0.018 0 0 0 0 -0.0067 0.0922 0.0055 0 0 0 0 0.0266 0 0 0 0 0 0.0228 0 0 0 0 0 0.015 0 0 0 0 -0.0067 0.0925 -0.0113 0 0 0 0 0.0247 0 0 0 0 0 0.0221 0 0 0 0 0 0.018 0 0 0 0 -0.0066 0.0935 -0.0272 0 0 0 0 0.0163 0 0 0 0 0 0.0171 0 0 0 0 0 0.018 0 0 0 0 -2.98023e-06 32.7348 0 15.3509 -1.70755e-06 -1.72173 -19.3131 -1.19209e-05 -7.15256e-05 -116.28 -82.9923 -85.54 -26.4317 -2.38419e-05 8.9407e-06 -1.52453e-07 -3.84198e-06 39.4977 -29.0969 -2.38419e-05 -1.19209e-05 -13.1635 -0.223135 2.27015 -0.0062 0.0497 0.0339 0 0 0 0 0.0215 0 0 0 0 0 0.022 0 0 0 0 0 0.017 0 0 0 0 0.0068 0.0873 0.0207 0 0 0 0 0.0267 0 0 0 0 0 0.0213 0 0 0 0 0 0.018 0 0 0 0 0.0067 0.0922 0.0055 0 0 0 0 0.0266 0 0 0 0 0 0.0228 0 0 0 0 0 0.015 0 0 0 0 0.0067 0.0925 -0.0113 0 0 0 0 0.0247 0 0 0 0 0 0.0221 0 0 0 0 0 0.018 0 0 0 0 0.0066 0.0935 -0.0272 0 0 0 0 0.0163 0 0 0 0 0 0.0171 0 0 0 0 0 0.018 0 0 0 0 -2.98023e-06 32.7348 0 -7.58567 8.66479 1.14938 -5.96046e-06 21.7703 0 1.0352e-05 -9.8184e-06 0 
-12.8131 6.34877 -301.367 1.21117 -3.45888 -4.03207 8.2358 -8.32146 1.99642 2.855 1.97748 -3.22648 5.96046e-06 -51.1488 -4.76837e-05 -7.48069 0.423569 0.0556168 -2.98023e-06 -41.5164 -4.76837e-05 31.3237 0.270913 20.3879 -8.21858 -8.33429 1.0972 -4.99551 -0.200799 -3.15758 -5.96046e-06 -51.0787 4.76837e-05 5.72061 6.94816 -0.694305 0 -40.4128 2.38419e-05 2.34262 0.703557 1.33045 -2.98023e-06 6.01107 -6.01108 -0.0205957 -0.682264 -0.0352339 2.98023e-06 32.7348 -2.38419e-05 -14.6577 1.08856e-05 2.32623 19.1987 0 -2.38419e-05 63.6578 -71.4833 18.7382 25.6885 4.76837e-05 8.9407e-06 8.26584e-06 0 -34.278 25.87 -2.38419e-05 5.96046e-06 16.4565 -0.344749 -8.20959 0.0062 0.0497 0.0339 0 0 0 0 0.0215 0 0 0 0 0 0.022 0 0 0 0 0 0.017 0 0 0 0 -0.0068 0.0873 0.0207 0 0 0 0 0.0267 0 0 0 0 0 0.0213 0 0 0 0 0 0.018 0 0 0 0 -0.0067 0.0922 0.0055 0 0 0 0 0.0266 0 0 0 0 0 0.0228 0 0 0 0 0 0.015 0 0 0 0 -0.0067 0.0925 -0.0113 0 0 0 0 0.0247 0 0 0 0 0 0.0221 0 0 0 0 0 0.018 0 0 0 0 -0.0066 0.0935 -0.0272 0 0 0 0 0.0163 0 0 0 0 0 0.0171 0 0 0 0 0 0.018 0 0 0 0 2.98023e-06 32.7348 -2.38419e-05 14.3924 -3.4151e-06 -2.28977 -19.5043 -5.96046e-06 -2.38419e-05 -120.116 -86.4098 -84.9228 -25.8815 -4.76837e-05 5.96046e-06 5.29567e-06 8.27093e-06 40.3621 -28.0092 0 1.78814e-05 -11.8322 -0.412197 6.86202 -0.0062 0.0497 0.0339 0 0 0 0 0.0215 0 0 0 0 0 0.022 0 0 0 0 0 0.017 0 0 0 0 0.0068 0.0873 0.0207 0 0 0 0 0.0267 0 0 0 0 0 0.0213 0 0 0 0 0 0.018 0 0 0 0 0.0067 0.0922 0.0055 0 0 0 0 0.0266 0 0 0 0 0 0.0228 0 0 0 0 0 0.015 0 0 0 0 0.0067 0.0925 -0.0113 0 0 0 0 0.0247 0 0 0 0 0 0.0221 0 0 0 0 0 0.018 0 0 0 0 0.0066 0.0935 -0.0272 0 0 0 0 0.0163 0 0 0 0 0 0.0171 0 0 0 0 0 0.018 0 0 0 0 2.98023e-06 32.7348 -2.38419e-05 -7.76111 8.73707 1.18601 5.96046e-06 21.4469 2.38419e-05 1.08323e-05 -1.02453e-05 2.13443e-07 
